<mxfile host="65bd71144e">
    <diagram id="0KxHg8w-oOYpywOhIbO6" name="Page-1">
        <mxGraphModel dx="386" dy="333" grid="1" gridSize="10" guides="1" tooltips="1" connect="1" arrows="1" fold="1" page="1" pageScale="1" pageWidth="850" pageHeight="1100" background="#ffffff" math="0" shadow="0">
            <root>
                <mxCell id="0"/>
                <mxCell id="1" parent="0"/>
                <mxCell id="2" value="&lt;font face=&quot;Georgia&quot; style=&quot;font-size: 26px;&quot;&gt;FULLSTACK PROJECT MANAGEMENT APP&lt;/font&gt;" style="text;html=1;strokeColor=none;fillColor=none;align=center;verticalAlign=middle;whiteSpace=wrap;rounded=0;" parent="1" vertex="1">
                    <mxGeometry x="195" y="70" width="515" height="30" as="geometry"/>
                </mxCell>
                <mxCell id="64" style="edgeStyle=none;html=1;" edge="1" parent="1" source="12">
                    <mxGeometry relative="1" as="geometry">
                        <mxPoint x="370" y="360" as="targetPoint"/>
                    </mxGeometry>
                </mxCell>
                <mxCell id="12" value="Developer : TokenableBaseEntity" style="swimlane;fontStyle=1;align=center;verticalAlign=top;childLayout=stackLayout;horizontal=1;startSize=26;horizontalStack=0;resizeParent=1;resizeParentMax=0;resizeLast=0;collapsible=1;marginBottom=0;fontFamily=Georgia;fontSize=14;" parent="1" vertex="1">
                    <mxGeometry x="105" y="440" width="320" height="150" as="geometry"/>
                </mxCell>
                <mxCell id="13" value="+ fullname : String&#10;+ password : String&#10;+ email : String&#10;+ tasks : List&lt;Task&gt;" style="text;strokeColor=none;fillColor=none;align=left;verticalAlign=top;spacingLeft=4;spacingRight=4;overflow=hidden;rotatable=0;points=[[0,0.5],[1,0.5]];portConstraint=eastwest;fontFamily=Georgia;fontSize=14;" parent="12" vertex="1">
                    <mxGeometry y="26" width="320" height="84" as="geometry"/>
                </mxCell>
                <mxCell id="14" value="" style="line;strokeWidth=1;fillColor=none;align=left;verticalAlign=middle;spacingTop=-1;spacingLeft=3;spacingRight=3;rotatable=0;labelPosition=right;points=[];portConstraint=eastwest;strokeColor=inherit;fontFamily=Georgia;fontSize=14;" parent="12" vertex="1">
                    <mxGeometry y="110" width="320" height="8" as="geometry"/>
                </mxCell>
                <mxCell id="15" value="+ finishTask (int taskId)" style="text;strokeColor=none;fillColor=none;align=left;verticalAlign=top;spacingLeft=4;spacingRight=4;overflow=hidden;rotatable=0;points=[[0,0.5],[1,0.5]];portConstraint=eastwest;fontFamily=Georgia;fontSize=14;" parent="12" vertex="1">
                    <mxGeometry y="118" width="320" height="32" as="geometry"/>
                </mxCell>
                <mxCell id="24" style="edgeStyle=none;html=1;entryX=0.5;entryY=0;entryDx=0;entryDy=0;fontFamily=Georgia;fontSize=14;" parent="1" source="16" target="20" edge="1">
                    <mxGeometry relative="1" as="geometry"/>
                </mxCell>
                <mxCell id="16" value="BaseEntity" style="swimlane;fontStyle=1;align=center;verticalAlign=top;childLayout=stackLayout;horizontal=1;startSize=26;horizontalStack=0;resizeParent=1;resizeParentMax=0;resizeLast=0;collapsible=1;marginBottom=0;fontFamily=Georgia;fontSize=14;" parent="1" vertex="1">
                    <mxGeometry x="330" y="150" width="220" height="50" as="geometry"/>
                </mxCell>
                <mxCell id="20" value="TokenableBaseEntity : BaseEntity" style="swimlane;fontStyle=1;align=center;verticalAlign=top;childLayout=stackLayout;horizontal=1;startSize=26;horizontalStack=0;resizeParent=1;resizeParentMax=0;resizeLast=0;collapsible=1;marginBottom=0;fontFamily=Georgia;fontSize=14;" parent="1" vertex="1">
                    <mxGeometry x="320" y="280" width="240" height="70" as="geometry"/>
                </mxCell>
                <mxCell id="21" value="+ tokenUsername: String&#10;+ tokenPassword : String" style="text;strokeColor=none;fillColor=none;align=left;verticalAlign=top;spacingLeft=4;spacingRight=4;overflow=hidden;rotatable=0;points=[[0,0.5],[1,0.5]];portConstraint=eastwest;fontFamily=Georgia;fontSize=14;" parent="20" vertex="1">
                    <mxGeometry y="26" width="240" height="44" as="geometry"/>
                </mxCell>
                <mxCell id="65" style="edgeStyle=none;html=1;" edge="1" parent="1" source="38">
                    <mxGeometry relative="1" as="geometry">
                        <mxPoint x="490" y="360" as="targetPoint"/>
                    </mxGeometry>
                </mxCell>
                <mxCell id="38" value="TeamLead : TokenableBaseEntity" style="swimlane;fontStyle=1;align=center;verticalAlign=top;childLayout=stackLayout;horizontal=1;startSize=26;horizontalStack=0;resizeParent=1;resizeParentMax=0;resizeLast=0;collapsible=1;marginBottom=0;fontFamily=Georgia;fontSize=14;" parent="1" vertex="1">
                    <mxGeometry x="510" y="420" width="320" height="200" as="geometry"/>
                </mxCell>
                <mxCell id="39" value="+ fullname : String&#10;+ password : String&#10;+ email : String&#10;+ developers : List&lt;Developer&gt;" style="text;strokeColor=none;fillColor=none;align=left;verticalAlign=top;spacingLeft=4;spacingRight=4;overflow=hidden;rotatable=0;points=[[0,0.5],[1,0.5]];portConstraint=eastwest;fontFamily=Georgia;fontSize=14;" parent="38" vertex="1">
                    <mxGeometry y="26" width="320" height="84" as="geometry"/>
                </mxCell>
                <mxCell id="40" value="" style="line;strokeWidth=1;fillColor=none;align=left;verticalAlign=middle;spacingTop=-1;spacingLeft=3;spacingRight=3;rotatable=0;labelPosition=right;points=[];portConstraint=eastwest;strokeColor=inherit;fontFamily=Georgia;fontSize=14;" parent="38" vertex="1">
                    <mxGeometry y="110" width="320" height="8" as="geometry"/>
                </mxCell>
                <mxCell id="41" value="+ addDeveloperToTeam (int developerId)&#10;+ dismissDeveloper (int developerId)&#10;+ confirmFinishTask (int taskId)&#10;+ resendTask (int taskId)" style="text;strokeColor=none;fillColor=none;align=left;verticalAlign=top;spacingLeft=4;spacingRight=4;overflow=hidden;rotatable=0;points=[[0,0.5],[1,0.5]];portConstraint=eastwest;fontFamily=Georgia;fontSize=14;" parent="38" vertex="1">
                    <mxGeometry y="118" width="320" height="82" as="geometry"/>
                </mxCell>
                <mxCell id="17" value="+ id: Integer" style="text;strokeColor=none;fillColor=none;align=left;verticalAlign=top;spacingLeft=4;spacingRight=4;overflow=hidden;rotatable=0;points=[[0,0.5],[1,0.5]];portConstraint=eastwest;fontFamily=Georgia;fontSize=14;" parent="1" vertex="1">
                    <mxGeometry x="330" y="176" width="220" height="24" as="geometry"/>
                </mxCell>
                <mxCell id="63" style="edgeStyle=none;html=1;entryX=1.009;entryY=1.049;entryDx=0;entryDy=0;entryPerimeter=0;" edge="1" parent="1" source="52" target="17">
                    <mxGeometry relative="1" as="geometry"/>
                </mxCell>
                <mxCell id="52" value="Task : BaseEntity" style="swimlane;fontStyle=1;align=center;verticalAlign=top;childLayout=stackLayout;horizontal=1;startSize=26;horizontalStack=0;resizeParent=1;resizeParentMax=0;resizeLast=0;collapsible=1;marginBottom=0;" vertex="1" parent="1">
                    <mxGeometry x="640" y="254" width="190" height="90" as="geometry">
                        <mxRectangle x="640" y="254" width="140" height="30" as="alternateBounds"/>
                    </mxGeometry>
                </mxCell>
                <mxCell id="53" value="+ comments : List&lt;Comments&gt;&#10;+ isDone : Boolean&#10;+ overdueDate : Datetime" style="text;strokeColor=none;fillColor=none;align=left;verticalAlign=top;spacingLeft=4;spacingRight=4;overflow=hidden;rotatable=0;points=[[0,0.5],[1,0.5]];portConstraint=eastwest;" vertex="1" parent="52">
                    <mxGeometry y="26" width="190" height="64" as="geometry"/>
                </mxCell>
                <mxCell id="56" value="Comment : BaseEntity" style="swimlane;fontStyle=1;align=center;verticalAlign=top;childLayout=stackLayout;horizontal=1;startSize=26;horizontalStack=0;resizeParent=1;resizeParentMax=0;resizeLast=0;collapsible=1;marginBottom=0;" vertex="1" parent="1">
                    <mxGeometry x="640" y="130" width="190" height="80" as="geometry"/>
                </mxCell>
                <mxCell id="57" value="+ from : String&#10;+ date : Datetime&#10;+ message : String&#10;" style="text;strokeColor=none;fillColor=none;align=left;verticalAlign=top;spacingLeft=4;spacingRight=4;overflow=hidden;rotatable=0;points=[[0,0.5],[1,0.5]];portConstraint=eastwest;" vertex="1" parent="56">
                    <mxGeometry y="26" width="190" height="54" as="geometry"/>
                </mxCell>
                <mxCell id="60" style="edgeStyle=none;html=1;entryX=1.017;entryY=-0.03;entryDx=0;entryDy=0;entryPerimeter=0;" edge="1" parent="1" source="57" target="17">
                    <mxGeometry relative="1" as="geometry"/>
                </mxCell>
            </root>
        </mxGraphModel>
    </diagram>
</mxfile>